<svg xmlns="http://www.w3.org/2000/svg" viewBox="0 0 263 264">
  <title>Untitled-1</title>
  <circle cx="131.5" cy="131.5" r="131.5" fill="#fff"/>
  <g>
    <path d="M926.4,308c-71.83,0-130.07,59.1-130.07,132S854.57,572,926.4,572s130.07-59.1,130.07-132S998.24,308,926.4,308Zm56.91,210.8a9.6,9.6,0,0,1-5.23,1.55,9.7,9.7,0,0,1-8.23-4.57L943.58,474a10,10,0,0,1-.41-9.85l-11.53-18.36a49.45,49.45,0,0,1-24.3,6.37c-27.79,0-50.4-22.95-50.4-51.15s22.61-51.15,50.4-51.15,50.41,22.94,50.41,51.15a51.36,51.36,0,0,1-18.07,39.18l11.72,18.63a9.67,9.67,0,0,1,8.63,4.53l26.26,41.79A10,10,0,0,1,983.31,518.8Z" transform="translate(-795 -308)"/>
    <path d="M907.34,369.64c-17,0-30.89,14.07-30.89,31.35s13.86,31.35,30.89,31.35,30.89-14.06,30.89-31.35A31.16,31.16,0,0,0,907.34,369.64Z" transform="translate(-795 -308)"/>
  </g>
</svg>
